<svg xmlns="http://www.w3.org/2000/svg" xmlns:xlink="http://www.w3.org/1999/xlink" width="500" zoomAndPan="magnify" viewBox="0 0 375 374.999991" height="500" preserveAspectRatio="xMidYMid meet" version="1.0"><defs><clipPath id="abf9c680e1"><path d="M 25.433594 6 L 349.433594 6 L 349.433594 369 L 25.433594 369 Z M 25.433594 6 " clip-rule="nonzero"/></clipPath><clipPath id="d3258c70ce"><path d="M 96.371094 144.441406 L 278.617188 144.441406 L 278.617188 249.277344 L 96.371094 249.277344 Z M 96.371094 144.441406 " clip-rule="nonzero"/></clipPath><clipPath id="c1d194e32d"><path d="M 122 125.53125 L 172 125.53125 L 172 163 L 122 163 Z M 122 125.53125 " clip-rule="nonzero"/></clipPath><clipPath id="4182c25d48"><path d="M 203 125.53125 L 253 125.53125 L 253 163 L 203 163 Z M 203 125.53125 " clip-rule="nonzero"/></clipPath></defs><g clip-path="url(#abf9c680e1)"><path fill="#ff4d4d" d="M 330.003906 292.253906 L 268.4375 327.804688 L 206.875 363.355469 C 196.144531 369.554688 178.722656 369.554688 167.992188 363.355469 L 106.429688 327.804688 L 44.863281 292.253906 C 34.136719 286.054688 25.425781 270.964844 25.425781 258.574219 L 25.425781 116.363281 C 25.425781 103.972656 34.136719 88.878906 44.863281 82.679688 L 106.429688 47.128906 L 167.992188 11.578125 C 178.722656 5.378906 196.144531 5.378906 206.875 11.578125 L 268.4375 47.128906 L 330.003906 82.679688 C 340.734375 88.878906 349.441406 103.972656 349.441406 116.363281 L 349.441406 258.574219 C 349.441406 270.964844 340.734375 286.054688 330.003906 292.253906 Z M 330.003906 292.253906 " fill-opacity="1" fill-rule="nonzero"/></g><g clip-path="url(#d3258c70ce)"><path fill="#ffffff" d="M 271.621094 249.277344 L 103.367188 249.277344 C 99.503906 249.277344 96.371094 246.148438 96.371094 242.289062 L 96.371094 151.511719 C 96.371094 147.652344 99.503906 144.523438 103.367188 144.523438 L 271.621094 144.523438 C 275.484375 144.523438 278.617188 147.652344 278.617188 151.511719 L 278.617188 242.289062 C 278.617188 246.148438 275.484375 249.277344 271.621094 249.277344 " fill-opacity="1" fill-rule="nonzero"/></g><g clip-path="url(#c1d194e32d)"><path fill="#ffffff" d="M 171.421875 162.511719 L 122.203125 162.511719 L 122.203125 132.988281 C 122.203125 128.871094 125.542969 125.535156 129.664062 125.535156 L 163.957031 125.535156 C 168.078125 125.535156 171.421875 128.871094 171.421875 132.988281 L 171.421875 162.511719 " fill-opacity="1" fill-rule="nonzero"/></g><g clip-path="url(#4182c25d48)"><path fill="#ffffff" d="M 252.785156 162.511719 L 203.566406 162.511719 L 203.566406 132.988281 C 203.566406 128.871094 206.90625 125.535156 211.03125 125.535156 L 245.324219 125.535156 C 249.445312 125.535156 252.785156 128.871094 252.785156 132.988281 L 252.785156 162.511719 " fill-opacity="1" fill-rule="nonzero"/></g></svg>